<svg xmlns="http://www.w3.org/2000/svg" width="16" height="16" viewBox="0 0 16 16"><g transform="translate(29.5 -1159.862)"><circle cx="-21.5" cy="1167.862" r="8" style="isolation:auto;mix-blend-mode:normal;solid-color:#000;solid-opacity:1" fill="#ffc10e" color="#000" enable-background="accumulate" overflow="visible"/><path style="isolation:auto;mix-blend-mode:normal;solid-color:#000;solid-opacity:1" fill="#cb9700" d="m -28.018702,1163.2351 a 7.9998951,7.9998951 0 0 0 -1.480469,4.627 7.9998951,7.9998951 0 0 0 8,8 7.9998951,7.9998951 0 0 0 7.619141,-5.5742 7.9998951,7.9998951 0 0 1 -6.519531,3.375 7.9998951,7.9998951 0 0 1 -8.000001,-8 7.9998951,7.9998951 0 0 1 0.38086,-2.4278 z" color="#000" enable-background="accumulate" overflow="visible"/><circle style="isolation:auto;mix-blend-mode:normal;solid-color:#000;solid-opacity:1" cx="-21.5" cy="1167.862" r="7.5" fill="none" color="#000" enable-background="accumulate" overflow="visible"/><path style="isolation:auto;mix-blend-mode:normal;solid-color:#000;solid-opacity:1" fill="none" stroke="#fff" stroke-linecap="round" stroke-linejoin="round" d="m -21.500091,1162.3613 0.0516,0 m 1.871267,0.341 c 2.089807,0.7797 3.578063,2.7939 3.578055,5.1555 0,0.2006 -0.01073,0.3986 -0.03166,0.5936" color="#000" enable-background="accumulate" overflow="visible"/><circle cx="-21.5" cy="1167.862" r="7.5" style="isolation:auto;mix-blend-mode:normal;solid-color:#000;solid-opacity:1" fill="none" stroke="#000" stroke-linecap="round" stroke-linejoin="round" color="#000" enable-background="accumulate" overflow="visible"/><path style="line-height:normal;text-indent:0;text-align:start;text-decoration-line:none;text-decoration-style:solid;text-decoration-color:#000;text-transform:none;block-progression:tb;white-space:normal;isolation:auto;mix-blend-mode:normal;solid-color:#000;solid-opacity:1" d="M-21.007913 1166.8621a.50005.50005 0 01-.49218-.5078c0-.7138.38189-1.3736 1-1.7305.6181-.3569 1.38189-.3569 2 0 .6181.3569 1 1.0167 1 1.7305a.50005.50005 0 11-1 0c0-.3581-.18991-.6862-.5-.8653-.3101-.179-.68991-.179-1 0-.3101.1791-.5.5072-.5.8653a.50005.50005 0 01-.50782.5078zM-23.007913 1171.3699a.50005.50005 0 01-.49218-.5078c0-.7137.38189-1.3756 1-1.7324.6181-.3569 1.38189-.3569 2 0 .6181.3568 1 1.0187 1 1.7324a.50005.50005 0 11-1 0c0-.3581-.18991-.6862-.5-.8653-.3101-.179-.68991-.179-1 0-.3101.1791-.5.5072-.5.8653a.50005.50005 0 01-.50782.5078z" color="#000" enable-background="accumulate" font-family="sans-serif" font-weight="400" overflow="visible"/><path d="m -24.001003,1168.3622 c 0,0.5523 -0.44772,1 -1,1 -0.55228,0 -1,-0.4477 -1,-1 0,-0.5523 0.98808,-1.6326 1,-1.6063 0,0 1,1.054 1,1.6063 z" style="isolation:auto;mix-blend-mode:normal;solid-color:#000;solid-opacity:1" fill="#2fa4f3" color="#000" enable-background="accumulate" overflow="visible"/><path style="line-height:normal;text-indent:0;text-align:start;text-decoration-line:none;text-decoration-style:solid;text-decoration-color:#000;text-transform:none;block-progression:tb;white-space:normal;isolation:auto;mix-blend-mode:normal;solid-color:#000;solid-opacity:1" d="m -25.007913,1166.8621 a 0.50005,0.50005 0 0 1 -0.49218,-0.5078 c 0,-0.7138 0.38189,-1.3736 1,-1.7305 0.6181,-0.3569 1.38189,-0.3569 2,0 0.6181,0.3569 1,1.0167 1,1.7305 a 0.50005,0.50005 0 1 1 -1,0 c 0,-0.3581 -0.18991,-0.6862 -0.5,-0.8653 -0.3101,-0.179 -0.68991,-0.179 -1,0 -0.3101,0.1791 -0.5,0.5072 -0.5,0.8653 a 0.50005,0.50005 0 0 1 -0.50782,0.5078 z" color="#000" enable-background="accumulate" font-family="sans-serif" font-weight="400" overflow="visible"/></g></svg>